<?xml version="1.0" encoding="UTF-8"?>
<!DOCTYPE svg PUBLIC "-//W3C//DTD SVG 1.1//EN" "http://www.w3.org/Graphics/SVG/1.1/DTD/svg11.dtd">
<svg xmlns="http://www.w3.org/2000/svg" version="1.1" width="3840px" height="2161px" style="shape-rendering:geometricPrecision; text-rendering:geometricPrecision; image-rendering:optimizeQuality; fill-rule:evenodd; clip-rule:evenodd" xmlns:xlink="http://www.w3.org/1999/xlink">
<g><path style="opacity:0.995" fill="#044f9d" d="M 1489.5,883.5 C 1490.55,883.351 1491.55,883.517 1492.5,884C 1529.17,920.667 1565.83,957.333 1602.5,994C 1619.36,1009.01 1635.86,1024.17 1652,1039.5C 1660.14,1050.46 1667.3,1062.13 1673.5,1074.5C 1673.29,1075.09 1672.96,1075.59 1672.5,1076C 1673.67,1076.5 1674.5,1077.33 1675,1078.5C 1678.71,1089.11 1680.71,1100.11 1681,1111.5C 1681.5,1166.5 1681.67,1221.5 1681.5,1276.5C 1633.5,1276.67 1585.5,1276.5 1537.5,1276C 1511.29,1272.79 1495.79,1258.29 1491,1232.5C 1489.56,1203.2 1489.06,1173.87 1489.5,1144.5C 1490.55,1144.35 1491.55,1144.52 1492.5,1145C 1512.45,1165.07 1532.28,1185.24 1552,1205.5C 1552.17,1203 1552.33,1200.5 1552.5,1198C 1552.43,1195.05 1551.77,1192.38 1550.5,1190C 1550.83,1189.67 1551.17,1189.33 1551.5,1189C 1544.15,1182.87 1536.99,1176.37 1530,1169.5C 1523.09,1159.09 1515.26,1149.42 1506.5,1140.5C 1497.49,1128.03 1491.99,1113.69 1490,1097.5C 1489.17,1069.49 1489.33,1041.49 1490.5,1013.5C 1522.54,1045.37 1554.37,1077.37 1586,1109.5C 1586.72,1104.8 1586.55,1100.13 1585.5,1095.5C 1583.19,1090.21 1580.35,1085.21 1577,1080.5C 1557.99,1061.79 1538.99,1043.12 1520,1024.5C 1511.74,1014.9 1504.24,1004.74 1497.5,994C 1496.46,989.664 1494.79,985.164 1492.5,980.5C 1492.61,979.558 1492.94,978.725 1493.5,978C 1492.42,977.326 1491.75,976.326 1491.5,975C 1490.88,971.519 1490.38,968.019 1490,964.5C 1489.5,937.502 1489.33,910.502 1489.5,883.5 Z"/></g>
<g><path style="opacity:0.993" fill="#064f9d" d="M 1883.5,883.5 C 1884.5,883.5 1885.5,883.5 1886.5,883.5C 1886.67,911.502 1886.5,939.502 1886,967.5C 1883.49,982.131 1877.49,995.465 1868,1007.5C 1842.81,1032.69 1817.64,1057.86 1792.5,1083C 1791.51,1086.83 1789.68,1090.66 1787,1094.5C 1786.33,1098.83 1786.33,1103.17 1787,1107.5C 1801.22,1094.28 1815.05,1080.78 1828.5,1067C 1830.5,1065.67 1832.5,1064.33 1834.5,1063C 1850.91,1046.09 1867.91,1029.59 1885.5,1013.5C 1886.67,1042.16 1886.83,1070.83 1886,1099.5C 1882.85,1121.37 1872.35,1139.04 1854.5,1152.5C 1845.98,1164.68 1836.14,1175.68 1825,1185.5C 1820.54,1191.8 1818.87,1198.8 1820,1206.5C 1841.28,1185.39 1863.11,1164.72 1885.5,1144.5C 1886.67,1172.16 1886.83,1199.83 1886,1227.5C 1883.08,1246.2 1873.58,1260.37 1857.5,1270C 1852.51,1272.58 1847.18,1274.25 1841.5,1275C 1792.53,1276.47 1743.53,1276.97 1694.5,1276.5C 1694.17,1217.83 1694.5,1159.16 1695.5,1100.5C 1697.48,1081.4 1704.32,1064.07 1716,1048.5C 1771.63,992.032 1827.46,937.032 1883.5,883.5 Z"/></g>
<g><path style="opacity:0.993" fill="#e20016" d="M 2027.5,1052.5 C 2027.17,1051.5 2026.5,1050.83 2025.5,1050.5C 2023.25,1049.79 2021.41,1048.45 2020,1046.5C 2019.67,1046.83 2019.33,1047.17 2019,1047.5C 2000.52,1033.07 1981.35,1019.23 1961.5,1006C 1960.45,1004.61 1960.28,1003.11 1961,1001.5C 1999.54,983.066 2037.2,963.066 2074,941.5C 2090.54,930.275 2107.04,919.109 2123.5,908C 2132.14,900.704 2140.8,893.37 2149.5,886C 2152.15,883.814 2155.15,883.148 2158.5,884C 2221.56,928.205 2284.89,972.039 2348.5,1015.5C 2349.61,1016.72 2349.78,1018.06 2349,1019.5C 2323.3,1031.85 2297.3,1041.18 2271,1047.5C 2258.66,1048.75 2245.99,1048.75 2233,1047.5C 2224.42,1045.31 2216.09,1042.31 2208,1038.5C 2200.35,1033.59 2192.52,1029.09 2184.5,1025C 2160.36,1006.07 2136.03,988.401 2111.5,972C 2110.53,969.453 2108.69,967.953 2106,967.5C 2102.6,970.408 2098.77,973.575 2094.5,977C 2170.26,1030.39 2246.59,1083.06 2323.5,1135C 2331.2,1140.84 2338.86,1146.68 2346.5,1152.5C 2345.22,1154.15 2343.55,1155.31 2341.5,1156C 2310.11,1168.77 2280.11,1183.44 2251.5,1200C 2232.16,1212.07 2213.49,1224.74 2195.5,1238C 2183.9,1247.93 2172.57,1258.26 2161.5,1269C 2158.1,1271.62 2154.6,1274.12 2151,1276.5C 2144.08,1272.52 2137.24,1268.35 2130.5,1264C 2075.38,1224.06 2019.21,1184.23 1962,1144.5C 1960.7,1142.64 1960.37,1140.64 1961,1138.5C 1962.47,1135.17 1964.64,1132.33 1967.5,1130C 1970.06,1129.77 1971.73,1128.44 1972.5,1126C 1978.25,1122.6 1984.25,1119.6 1990.5,1117C 2009.15,1111.07 2028.49,1107.57 2048.5,1106.5C 2055.17,1106.97 2061.84,1107.47 2068.5,1108C 2077.94,1109.61 2086.94,1112.61 2095.5,1117C 2129.23,1140.05 2163.23,1162.55 2197.5,1184.5C 2201.13,1183.51 2204.8,1182.68 2208.5,1182C 2147.81,1139.09 2087.47,1095.92 2027.5,1052.5 Z"/></g>
<g><path style="opacity:0.99" fill="#074f9d" d="M 2533.5,975.5 C 2559.57,974.937 2585.24,977.437 2610.5,983C 2618.45,985.239 2626.12,988.239 2633.5,992C 2635.38,994.106 2637.71,995.439 2640.5,996C 2644.25,998.742 2647.75,1001.91 2651,1005.5C 2653.7,1009.13 2656.2,1012.96 2658.5,1017C 2658.17,1017.33 2657.83,1017.67 2657.5,1018C 2658.67,1018.5 2659.5,1019.33 2660,1020.5C 2660.75,1023.64 2661.75,1026.64 2663,1029.5C 2663.72,1031.11 2663.55,1032.61 2662.5,1034C 2665.2,1036.97 2665.04,1039.81 2662,1042.5C 2632.67,1041.17 2603.33,1041.17 2574,1042.5C 2572.99,1038.8 2571.49,1035.3 2569.5,1032C 2569.83,1031.67 2570.17,1031.33 2570.5,1031C 2554.61,1019.24 2537.28,1016.57 2518.5,1023C 2514.43,1025.71 2512.09,1029.37 2511.5,1034C 2511.45,1038.29 2513.45,1041.29 2517.5,1043C 2550.52,1046.8 2583.52,1050.8 2616.5,1055C 2635.05,1058.98 2650.55,1068.14 2663,1082.5C 2671.9,1099.57 2673.9,1117.57 2669,1136.5C 2661.24,1154.6 2648.07,1166.76 2629.5,1173C 2612.13,1178.29 2594.46,1181.62 2576.5,1183C 2541.89,1185.22 2507.55,1183.22 2473.5,1177C 2462.07,1173.31 2451.74,1168.48 2442.5,1162.5C 2428.83,1151.19 2422.49,1136.53 2423.5,1118.5C 2454.77,1118.8 2485.94,1118.47 2517,1117.5C 2517.41,1117.96 2517.91,1118.29 2518.5,1118.5C 2519.2,1121.7 2519.87,1124.87 2520.5,1128C 2525.05,1128.94 2529.05,1130.94 2532.5,1134C 2537.39,1134.52 2542.06,1135.69 2546.5,1137.5C 2550.07,1136.36 2553.57,1136.36 2557,1137.5C 2559.48,1135.83 2562.31,1135 2565.5,1135C 2575.18,1133 2580.01,1127.17 2580,1117.5C 2575.42,1113.11 2569.92,1110.11 2563.5,1108.5C 2548.61,1107.29 2533.94,1105.29 2519.5,1102.5C 2518.03,1102.72 2516.53,1103.06 2515,1103.5C 2510.99,1102.06 2506.83,1101.23 2502.5,1101C 2502,1100.5 2501.5,1100 2501,1099.5C 2498.67,1099.83 2496.33,1100.17 2494,1100.5C 2482.94,1098.88 2472.44,1096.38 2462.5,1093C 2438.56,1083.22 2426.89,1065.39 2427.5,1039.5C 2426.93,1018.15 2435.26,1001.98 2452.5,991C 2459.99,987.545 2467.65,984.545 2475.5,982C 2494.74,977.633 2514.07,975.466 2533.5,975.5 Z"/></g>
<g><path style="opacity:0.993" fill="#e20016" d="M 117.5,1049.5 C 116.89,1048.61 116.557,1047.61 116.5,1046.5C 116.167,1045.17 115.833,1045.17 115.5,1046.5C 115.5,1089.5 115.5,1132.5 115.5,1175.5C 92.5,1175.5 69.5,1175.5 46.5,1175.5C 46.5,1110.17 46.5,1044.83 46.5,979.5C 81.8349,979.333 117.168,979.5 152.5,980C 154.394,981.079 154.727,982.413 153.5,984C 160.864,1004.36 167.03,1025.19 172,1046.5C 173.487,1047.25 173.654,1048.09 172.5,1049C 174.747,1054.22 176.747,1059.55 178.5,1065C 178.355,1065.77 178.022,1066.44 177.5,1067C 178.516,1067.52 179.182,1068.35 179.5,1069.5C 181.042,1076.25 182.875,1082.92 185,1089.5C 185.667,1088.83 186.333,1088.17 187,1087.5C 195.529,1052.73 204.695,1017.06 214.5,980.5C 251.457,979.506 288.457,979.173 325.5,979.5C 325.5,1044.83 325.5,1110.17 325.5,1175.5C 302.167,1175.5 278.833,1175.5 255.5,1175.5C 255.667,1132.17 255.5,1088.83 255,1045.5C 253.842,1049.8 252.842,1054.13 252,1058.5C 239.731,1097.67 228.231,1136.34 217.5,1174.5C 196.5,1175.83 175.5,1175.83 154.5,1174.5C 152.633,1173.2 152.3,1171.7 153.5,1170C 144.617,1143.42 136.45,1115.92 129,1087.5C 127.235,1082.9 125.402,1078.4 123.5,1074C 123.957,1073.59 124.291,1073.09 124.5,1072.5C 121.631,1064.62 119.298,1056.95 117.5,1049.5 Z"/></g>
<g><path style="opacity:0.991" fill="#e20016" d="M 415.5,979.5 C 447.502,979.333 479.502,979.5 511.5,980C 539.521,1044.63 567.187,1109.63 594.5,1175C 594.333,1175.5 594.167,1176 594,1176.5C 565.907,1175.5 537.741,1175.17 509.5,1175.5C 509.617,1173.52 508.95,1171.85 507.5,1170.5C 507.709,1169.91 508.043,1169.41 508.5,1169C 506.43,1164.59 504.43,1160.09 502.5,1155.5C 476.833,1154.17 451.167,1154.17 425.5,1155.5C 422.64,1161.54 420.64,1168.21 419.5,1175.5C 390.826,1175.83 362.159,1175.5 333.5,1174.5C 351.805,1133.38 369.472,1091.88 386.5,1050C 392.145,1038.16 397.312,1025.66 402,1012.5C 405.155,1005.06 408.655,997.89 412.5,991C 412.043,990.586 411.709,990.086 411.5,989.5C 413.813,986.563 415.146,983.23 415.5,979.5 Z M 461.5,1045.5 C 462.767,1047.31 464.1,1049.14 465.5,1051C 465.043,1051.41 464.709,1051.91 464.5,1052.5C 466.274,1057.44 468.274,1062.27 470.5,1067C 470.167,1067.33 469.833,1067.67 469.5,1068C 474.671,1080.5 479.004,1093.33 482.5,1106.5C 468.833,1106.5 455.167,1106.5 441.5,1106.5C 448.998,1086.49 455.665,1066.16 461.5,1045.5 Z"/></g>
<g><path style="opacity:0.993" fill="#e20016" d="M 598.5,979.5 C 654.834,979.333 711.168,979.5 767.5,980C 781.337,979.893 794.671,982.226 807.5,987C 811.244,989.955 815.078,992.789 819,995.5C 821.881,999.571 824.714,1003.74 827.5,1008C 827.167,1008.33 826.833,1008.67 826.5,1009C 827.428,1009.39 828.095,1010.05 828.5,1011C 829.546,1014.6 830.713,1018.1 832,1021.5C 833.568,1037.13 833.901,1052.79 833,1068.5C 831.48,1080.79 827.146,1091.46 820,1100.5C 812.08,1109.2 802.58,1114.2 791.5,1115.5C 791.351,1116.55 791.517,1117.55 792,1118.5C 794.5,1119.67 796.333,1121.5 797.5,1124C 798.833,1124.67 800.167,1125.33 801.5,1126C 818.401,1142.4 835.401,1158.57 852.5,1174.5C 818.838,1175.67 785.172,1175.83 751.5,1175C 730.711,1155.73 710.378,1136.57 690.5,1117.5C 685.9,1116.56 681.233,1116.22 676.5,1116.5C 676.5,1136.17 676.5,1155.83 676.5,1175.5C 650.5,1175.5 624.5,1175.5 598.5,1175.5C 598.5,1110.17 598.5,1044.83 598.5,979.5 Z M 676.5,1030.5 C 698.545,1030.06 720.545,1030.56 742.5,1032C 752.193,1038.25 754.693,1046.75 750,1057.5C 746.955,1061.06 743.288,1063.73 739,1065.5C 736.667,1065.17 734.333,1064.83 732,1064.5C 713.736,1066.48 695.236,1067.15 676.5,1066.5C 676.5,1054.5 676.5,1042.5 676.5,1030.5 Z"/></g>
<g><path style="opacity:0.992" fill="#e20117" d="M 853.5,979.5 C 880.5,979.5 907.5,979.5 934.5,979.5C 934.333,1022.17 934.5,1064.83 935,1107.5C 936.701,1116.2 941.201,1123.03 948.5,1128C 955.923,1130.48 963.423,1132.31 971,1133.5C 980.588,1132.74 989.755,1130.24 998.5,1126C 1002.29,1122.56 1005.62,1118.89 1008.5,1115C 1008.04,1114.59 1007.71,1114.09 1007.5,1113.5C 1009.02,1111.45 1009.85,1109.12 1010,1106.5C 1010.5,1064.17 1010.67,1021.83 1010.5,979.5C 1036.17,979.5 1061.83,979.5 1087.5,979.5C 1087.67,1026.17 1087.5,1072.83 1087,1119.5C 1084.48,1136.61 1077.48,1150.94 1066,1162.5C 1063.16,1163.55 1060.32,1165.39 1057.5,1168C 1038.45,1177.19 1018.79,1182.19 998.5,1183C 975.146,1183.85 951.813,1183.51 928.5,1182C 927.464,1180.38 926.297,1180.22 925,1181.5C 918.923,1179.94 912.757,1178.61 906.5,1177.5C 894.54,1173.68 883.207,1167.85 872.5,1160C 862.233,1147.99 856.066,1134.49 854,1119.5C 853.5,1072.83 853.333,1026.17 853.5,979.5 Z"/></g>
<g><path style="opacity:0.99" fill="#e20016" d="M 1100.5,979.5 C 1174.83,979.5 1249.17,979.5 1323.5,979.5C 1323.83,996.513 1323.5,1013.51 1322.5,1030.5C 1299.01,1030.52 1275.35,1030.52 1251.5,1030.5C 1251.5,1078.83 1251.5,1127.17 1251.5,1175.5C 1224.5,1175.5 1197.5,1175.5 1170.5,1175.5C 1170.5,1127.17 1170.5,1078.83 1170.5,1030.5C 1147.17,1030.5 1123.83,1030.5 1100.5,1030.5C 1100.5,1013.5 1100.5,996.5 1100.5,979.5 Z"/></g>
<g><path style="opacity:0.996" fill="#e20016" d="M 1335.5,979.5 C 1362.5,979.5 1389.5,979.5 1416.5,979.5C 1416.5,1044.83 1416.5,1110.17 1416.5,1175.5C 1389.02,1175.99 1361.69,1175.49 1334.5,1174C 1335.46,1109.36 1335.79,1044.52 1335.5,979.5 Z"/></g>
<g><path style="opacity:0.992" fill="#034f9d" d="M 2692.5,979.5 C 2719.17,979.5 2745.83,979.5 2772.5,979.5C 2772.17,1022.84 2772.5,1066.17 2773.5,1109.5C 2775,1117.38 2779,1123.54 2785.5,1128C 2804.38,1136.3 2822.38,1134.96 2839.5,1124C 2840.5,1121.67 2842.17,1120 2844.5,1119C 2844.17,1118.67 2843.83,1118.33 2843.5,1118C 2845.91,1114.43 2847.74,1110.6 2849,1106.5C 2849.5,1064.17 2849.67,1021.83 2849.5,979.5C 2874.83,979.5 2900.17,979.5 2925.5,979.5C 2925.67,1026.5 2925.5,1073.5 2925,1120.5C 2922.9,1146.23 2910.07,1164.06 2886.5,1174C 2861.29,1181.84 2835.45,1185.01 2809,1183.5C 2785.84,1184.62 2763.01,1182.45 2740.5,1177C 2712.21,1168.74 2696.38,1150.24 2693,1121.5C 2692.5,1074.17 2692.33,1026.83 2692.5,979.5 Z"/></g>
<g><path style="opacity:0.99" fill="#024f9d" d="M 2950.5,979.5 C 3022.17,979.5 3093.83,979.5 3165.5,979.5C 3165.67,995.17 3165.5,1010.84 3165,1026.5C 3128.81,1059.69 3092.31,1092.53 3055.5,1125C 3090.83,1125.5 3126.17,1125.67 3161.5,1125.5C 3161.5,1142.17 3161.5,1158.83 3161.5,1175.5C 3088.5,1175.5 3015.5,1175.5 2942.5,1175.5C 2942.33,1161.16 2942.5,1146.83 2943,1132.5C 2980.77,1099.02 3018.27,1065.19 3055.5,1031C 3020.5,1030.5 2985.5,1030.33 2950.5,1030.5C 2950.5,1013.5 2950.5,996.5 2950.5,979.5 Z"/></g>
<g><path style="opacity:0.993" fill="#044f9d" d="M 3181.5,979.5 C 3208.5,979.5 3235.5,979.5 3262.5,979.5C 3262.17,1023.17 3262.5,1066.84 3263.5,1110.5C 3264.89,1118.11 3268.89,1123.95 3275.5,1128C 3283.94,1130.49 3292.44,1132.32 3301,1133.5C 3316.94,1133.72 3328.61,1127.39 3336,1114.5C 3336.64,1110.28 3337.81,1106.28 3339.5,1102.5C 3339.36,1061.93 3339.03,1021.43 3338.5,981C 3364.02,979.51 3389.68,979.01 3415.5,979.5C 3415.67,1025.5 3415.5,1071.5 3415,1117.5C 3414.43,1135.73 3407.93,1151.23 3395.5,1164C 3392.78,1164.72 3390.62,1166.22 3389,1168.5C 3382.67,1171.75 3376.17,1174.58 3369.5,1177C 3347.27,1182.58 3324.61,1184.74 3301.5,1183.5C 3278.83,1184.49 3256.5,1182.65 3234.5,1178C 3200.06,1169.27 3182.56,1147.44 3182,1112.5C 3181.5,1068.17 3181.33,1023.83 3181.5,979.5 Z"/></g>
<g><path style="opacity:0.992" fill="#054f9d" d="M 3446.5,979.5 C 3472.5,979.5 3498.5,979.5 3524.5,979.5C 3524.33,1001.17 3524.5,1022.84 3525,1044.5C 3550.83,1023.66 3576.33,1002.49 3601.5,981C 3634.1,979.521 3666.77,979.021 3699.5,979.5C 3696.87,983.655 3693.53,987.488 3689.5,991C 3655.52,1019.23 3621.85,1048.23 3588.5,1078C 3624.77,1109.93 3660.77,1142.26 3696.5,1175C 3662.83,1175.67 3629.17,1175.67 3595.5,1175C 3572.14,1154.33 3548.64,1133.5 3525,1112.5C 3524.5,1133.5 3524.33,1154.5 3524.5,1175.5C 3498.5,1175.5 3472.5,1175.5 3446.5,1175.5C 3446.5,1110.17 3446.5,1044.83 3446.5,979.5 Z"/></g>
<g><path style="opacity:0.995" fill="#054f9d" d="M 3712.5,979.5 C 3739.17,979.5 3765.83,979.5 3792.5,979.5C 3792.5,1044.83 3792.5,1110.17 3792.5,1175.5C 3765.83,1175.5 3739.17,1175.5 3712.5,1175.5C 3712.5,1110.17 3712.5,1044.83 3712.5,979.5 Z"/></g>
<g><path style="opacity:0.2" fill="#892959" d="M 115.5,1046.5 C 115.833,1046.5 116.167,1046.5 116.5,1046.5C 116.557,1047.61 116.89,1048.61 117.5,1049.5C 116.833,1091.5 116.167,1133.5 115.5,1175.5C 115.5,1132.5 115.5,1089.5 115.5,1046.5 Z"/></g>
<g><path style="opacity:0.2" fill="#892959" d="M 2025.5,1050.5 C 2026.5,1050.83 2027.17,1051.5 2027.5,1052.5C 2026.17,1052.5 2025.5,1051.83 2025.5,1050.5 Z"/></g>
</svg>
